HIERARCHY
ROOT hip
{
	OFFSET 0.000000 0.000000 0.000000 
	CHANNELS 6 Xposition Yposition Zposition Xrotation Zrotation Yrotation
	JOINT abdomen
	{
		OFFSET 0.000000 3.402643 0.000000 
		CHANNELS 3 Xrotation Zrotation Yrotation
		JOINT chest
		{
			OFFSET 0.000000 8.438565 -0.680529 
			CHANNELS 3 Xrotation Zrotation Yrotation
			JOINT neck
			{
				OFFSET 0.000000 10.207942 -0.272212 
				CHANNELS 3 Xrotation Zrotation Yrotation
				JOINT head
				{
					OFFSET 0.000000 3.130431 0.000000 
					CHANNELS 3 Xrotation Zrotation Yrotation
					End Site
					{
						OFFSET 0.000000 3.130435 0.000000 
					}
				}
			}
			JOINT lCollar
			{
				OFFSET 3.470700 6.669187 -0.816635 
				CHANNELS 3 Yrotation Zrotation Xrotation
				JOINT lShldr
				{
					OFFSET 3.198488 0.000000 0.000000 
					CHANNELS 3 Zrotation Yrotation Xrotation
					JOINT lForeArm
					{
						OFFSET 10.139888 0.000000 0.000000 
						CHANNELS 3 Yrotation Zrotation Xrotation
						JOINT lHand
						{
							OFFSET 8.370511 0.000000 0.000000 
							CHANNELS 3 Zrotation Yrotation Xrotation
							End Site
							{
								OFFSET 4.083176 0.000000 0.000000 
							}
						}
					}
				}
			}
			JOINT rCollar
			{
				OFFSET -3.470700 6.669187 -0.816635 
				CHANNELS 3 Yrotation Zrotation Xrotation
				JOINT rShldr
				{
					OFFSET -3.198488 0.000000 0.000000 
					CHANNELS 3 Zrotation Yrotation Xrotation
					JOINT rForeArm
					{
						OFFSET -10.139888 0.000000 0.000000 
						CHANNELS 3 Yrotation Zrotation Xrotation
						JOINT rHand
						{
							OFFSET -8.370511 0.000000 0.000000 
							CHANNELS 3 Zrotation Yrotation Xrotation
							End Site
							{
								OFFSET -4.083176 0.000000 0.000000 
							}
						}
					}
				}
			}
		}
	}
	JOINT lThigh
	{
		OFFSET 5.308129 -1.633274 1.361059 
		CHANNELS 3 Xrotation Zrotation Yrotation
		JOINT lShin
		{
			OFFSET -2.041588 -20.007561 0.000000 
			CHANNELS 3 Xrotation Zrotation Yrotation
			JOINT lFoot
			{
				OFFSET 0.000000 -19.190928 -1.224953 
				CHANNELS 3 Xrotation Yrotation Zrotation
				End Site
				{
					OFFSET 0.000000 -2.449906 4.627600 
				}
			}
		}
	}
	JOINT rThigh
	{
		OFFSET -5.308129 -1.633274 1.361059 
		CHANNELS 3 Xrotation Zrotation Yrotation
		JOINT rShin
		{
			OFFSET 2.041588 -20.007561 0.000000 
			CHANNELS 3 Xrotation Zrotation Yrotation
			JOINT rFoot
			{
				OFFSET 0.000000 -19.190928 -1.224953 
				CHANNELS 3 Xrotation Yrotation Zrotation
				End Site
				{
					OFFSET 0.000000 -2.449906 4.627600 
				}
			}
		}
	}
}
MOTION
Frames: 10
Frame Time: 0.011111
30.683245 52.551769 -7.222250 4.768298 2.018570 -0.468374 11.216558 -1.079111 -3.895205 -13.911162 5.758360 -0.481709 -21.169462 -6.782235 0.010103 35.792988 15.543257 2.341822 -2.946841 -9.472683 0.034639 -59.540501 -37.081760 37.250851 -45.165802 6.426942 6.262908 8.524705 12.647240 -49.270885 7.873402 6.594518 -1.033983 57.580528 7.892722 32.179531 53.489532 -8.423206 9.593709 -8.534408 -12.637552 60.941265 -6.504883 -0.547092 4.996265 25.024137 -5.590506 -4.195065 -20.979143 -1.943677 -3.358740 -24.811663 -8.748986 -7.471402 66.439384 1.982819 8.635400 -19.706167 -5.059287 1.018693 
30.720634 52.503887 -6.652814 4.545154 2.475173 -0.204707 11.410801 -1.520658 -4.497926 -13.890485 5.889638 -0.622507 -21.049419 -6.601611 0.137427 35.725693 15.330979 2.626980 -2.946841 -9.472683 0.034639 -59.145496 -38.075981 37.858326 -45.783642 6.607865 6.501914 8.524705 12.647240 -49.456432 7.873402 6.594518 -1.033983 57.439560 7.037762 32.527740 53.595440 -8.444033 9.635864 -8.534408 -12.637552 61.175640 -4.965949 -1.190671 4.682947 24.133118 -5.637702 -4.095287 -21.041704 -2.066205 -3.401263 -25.658148 -9.215918 -7.164900 65.181564 2.129021 8.523833 -20.488493 -4.226514 1.169903 
30.755077 52.457306 -6.046641 4.226638 3.497785 0.238864 11.638622 -2.611595 -5.595549 -13.426218 6.216058 -0.816568 -21.208986 -6.331513 0.297303 35.664345 15.162349 2.953758 -2.946841 -9.472683 0.034639 -58.618855 -39.307114 38.643883 -46.547771 6.824988 6.787787 8.524705 12.647240 -48.753311 7.873402 6.594518 -1.033983 57.382938 6.725321 32.688480 53.511215 -8.429590 9.603004 -8.534408 -12.637552 60.892433 -3.126945 -2.466188 4.400715 23.343210 -5.676639 -3.963402 -21.208260 -2.408286 -3.547794 -26.431322 -10.437338 -6.891620 63.756550 2.294973 8.417491 -21.117411 -3.459588 1.344412 
30.741955 52.437622 -5.488030 4.130353 3.868681 0.798110 11.749579 -3.002920 -6.369861 -13.178386 6.461669 -0.975627 -21.343504 -6.333491 0.367256 35.757614 15.272704 3.115936 -2.946841 -9.472683 0.034639 -57.955677 -40.353699 40.449585 -47.675671 7.128179 7.229597 8.524705 12.647240 -46.624401 7.873402 6.594518 -1.033983 57.557514 6.501443 31.740559 53.321278 -8.393167 9.519934 -8.534408 -12.637552 60.228374 -1.859852 -2.952404 4.095741 22.642748 -5.706303 -3.876256 -21.352386 -2.580004 -3.579434 -27.277985 -10.836269 -6.741732 62.125454 2.490450 8.298325 -21.505962 -3.495897 1.277140 
30.703251 52.398922 -5.007816 4.400977 3.222979 1.139396 11.568498 -2.264879 -6.327794 -13.395935 6.322440 -1.034191 -21.303577 -6.561761 0.310405 36.049938 15.381407 3.010771 -2.946841 -9.472683 0.034639 -57.146381 -41.146671 43.234425 -48.724586 7.396251 7.646095 8.524705 12.647240 -44.309948 7.873402 6.594518 -1.033983 57.658421 5.569133 31.218414 53.595440 -8.444033 9.635864 -8.534408 -12.637552 60.511578 -1.499343 -2.231358 3.736590 21.910646 -5.735460 -3.776419 -21.497004 -2.666488 -3.615600 -28.288074 -9.823236 -6.494536 60.219688 2.715068 8.148771 -21.962606 -4.178064 0.965657 
30.690458 52.380219 -4.487582 4.556061 3.033894 1.515428 11.464505 -2.042297 -6.413960 -13.494385 6.302540 -1.084680 -21.190517 -6.885623 0.263340 36.210670 15.648037 2.921154 -2.946841 -9.472683 0.034639 -56.596447 -42.171303 44.713013 -49.535984 7.588058 7.966655 8.524705 12.647240 -43.313854 7.873402 6.594518 -1.033983 57.477066 4.403996 31.972723 54.133068 -8.537519 9.860472 -8.534408 -12.637552 62.113140 -0.816914 -2.044662 3.343752 21.236864 -5.764718 -3.691369 -21.634300 -3.025325 -3.762794 -29.124336 -9.499455 -6.123991 58.117863 2.939643 7.947412 -22.334198 -3.967418 0.980958 
30.694723 52.424179 -3.940781 4.555809 3.277922 2.142243 11.566565 -2.281509 -6.931390 -13.444603 6.386160 -1.203329 -20.826092 -7.185565 0.236663 35.668766 16.232210 2.964460 -2.946841 -9.472683 0.034639 -56.144848 -43.309925 45.178188 -50.350704 7.778492 8.290013 8.524705 12.647240 -43.040417 7.873402 6.594518 -1.033983 57.558449 3.843354 31.595909 54.016388 -8.514583 9.808126 -8.534408 -12.637552 62.415874 0.273151 -2.351390 3.090750 20.605434 -5.782244 -3.588196 -21.705612 -3.493722 -3.952800 -29.730461 -9.870940 -5.692251 55.846558 3.201478 7.743555 -22.587896 -3.172396 1.255708 
30.686520 52.407772 -3.400539 4.506375 3.587882 2.829832 11.712667 -2.597086 -7.670558 -13.472421 6.577632 -1.385325 -20.481306 -7.228674 0.231213 35.113884 16.421288 2.992415 -2.946841 -9.472683 0.034639 -55.674599 -44.251614 45.832001 -51.155548 7.951625 8.612997 8.524705 12.647240 -42.571663 7.873402 6.594518 -1.033983 57.482853 3.518727 30.818233 53.562820 -8.434823 9.625333 -8.534408 -12.637552 61.312363 1.513168 -2.685025 2.834979 19.764633 -5.813318 -3.478333 -21.759953 -3.769713 -4.058272 -30.183617 -10.302203 -5.354807 53.377090 3.447254 7.515803 -22.805990 -2.788849 1.367020 
30.664217 52.381859 -2.834383 4.651178 3.502730 3.195167 11.548140 -2.495432 -8.086503 -13.382524 6.740640 -1.496253 -20.683483 -7.022359 0.260160 35.356510 15.933914 2.946640 -2.946841 -9.472683 0.034639 -55.242825 -45.166393 46.642872 -52.036621 8.137166 8.978995 8.524705 12.647240 -41.468147 7.873402 6.594518 -1.033983 57.213047 3.031724 30.801842 53.436584 -8.412698 9.571963 -8.534408 -12.637552 60.921734 2.476208 -2.573406 2.322570 18.734301 -5.854423 -3.313898 -21.836073 -3.737675 -4.053869 -30.648483 -10.124822 -4.983243 50.717827 3.710997 7.261783 -21.906103 -3.520119 1.227797 
30.619934 52.434013 -2.307591 5.057664 2.790256 3.256640 11.127131 -1.738584 -8.044008 -13.285075 6.667033 -1.536644 -21.125027 -6.799846 0.259833 35.777660 15.557788 2.864446 -2.946841 -9.472683 0.034639 -54.793999 -46.119522 47.130375 -52.898140 8.304581 9.332437 8.524705 12.647240 -40.686905 7.873402 6.594518 -1.033983 57.290394 2.421360 30.659029 53.416248 -8.411478 9.560707 -8.534408 -12.637552 60.931496 2.919287 -1.776848 1.675410 17.642361 -5.870885 -3.178234 -21.909702 -3.423568 -3.919425 -31.354250 -9.071643 -4.168720 47.917072 4.001241 6.948183 -23.166279 -3.270689 1.121466 
